# xmcd
#
# Track frame offsets:
#	150
#	14580
#	31617
#	45407
#	57050
#	69820
#	86222
#	100657
#	111755
#	127430
#	145972
#	156532
#	167297
#	180910
#	198530
#	215885
#	229457
#	244890
#	260162
#	277907
#	294945
#	309787
#
# Disc length: 4401
#
# Revision: 1
# Processed by: cddbd v1.5.1PL0 Copyright (c) Steve Scherf et al.
# Submitted via: dBpowerAMP V4.0
# Normalized: r0:TDELIM( - )
#
DISCID=3b112f16
DTITLE=Various Artist - Hit The Hay
DYEAR=1994
DGENRE=Country
TTITLE0=Chais Von Sneidern - Hard Again
TTITLE1=Bill Lloyd - Anytime The Time Feels Right
TTITLE2=Tim Carroll - Good Cry
TTITLE3=Young Fresh Fellows - Yankee Magazine
TTITLE4=Bobby Sutliff - You Don't Have To Go
TTITLE5=Eddy Lawrence - Blues For Tomorrow
TTITLE6=Keith Klingensmith - Ann Marie
TTITLE7=The Stonecutters - Buddy Holly's In Heaven
TTITLE8=Slaid Cleaves - Brother's Keeper
TTITLE9=Scud Mt. Boys - Two Weeks Past
TTITLE10=The Picketts - The Longer You Wait
TTITLE11=The Idea - I'm Knocked Down
TTITLE12=Ray Mason Band - We Don't Get Along Anymore
TTITLE13=Bob Reuter and Kamikaze Cowbow - It don't Matter
TTITLE14=Andrew Chalfen - Lost My Place
TTITLE15=Chris Richards - You Wear It Well
TTITLE16=Bobby Smith - Date With The Blues
TTITLE17=Jim Diamond - Next Stop
TTITLE18=Pine Dogs - Naked Truth
TTITLE19=Todd Walker - Thrown Away
TTITLE20=Donovan's Brain - Dandelions are Back
TTITLE21=Thomas Anderson - CX-9
EXTD=Bush is the man!
EXTT0=
EXTT1=
EXTT2=
EXTT3=
EXTT4=
EXTT5=
EXTT6=
EXTT7=
EXTT8=
EXTT9=
EXTT10=
EXTT11=
EXTT12=
EXTT13=
EXTT14=
EXTT15=
EXTT16=
EXTT17=
EXTT18=
EXTT19=
EXTT20=
EXTT21=
PLAYORDER=
